<svg xmlns="http://www.w3.org/2000/svg" viewBox="0 0 317.54 53.64"><g id="Layer_2" data-name="Layer 2"><g id="Layer_1-2" data-name="Layer 1"><polygon points="3.32 0.29 0 0.29 0 40.88 20.79 40.88 20.79 37.87 3.32 37.87 3.32 0.29"/><path d="M41.1,14.61a13.4,13.4,0,0,0-5.38-1,15.65,15.65,0,0,0-6.19,1.07,25.24,25.24,0,0,0-4.08,2.12L27,19.08a17.09,17.09,0,0,1,2-1.22,14.57,14.57,0,0,1,2.81-1.1,13.48,13.48,0,0,1,3.69-.47,9.65,9.65,0,0,1,3.39.53,5.62,5.62,0,0,1,2.2,1.39,5.23,5.23,0,0,1,1.18,1.94,7,7,0,0,1,.36,2.23v4.51l-.54-.33a15.3,15.3,0,0,0-3.23-1.36,15.84,15.84,0,0,0-4.69-.61,11.88,11.88,0,0,0-7.65,2.26A7.49,7.49,0,0,0,23.69,33,7.88,7.88,0,0,0,25,37.69a8.31,8.31,0,0,0,3.51,2.81,11.1,11.1,0,0,0,4.53,1,12.26,12.26,0,0,0,4.78-1,9.53,9.53,0,0,0,3.93-3A7.17,7.17,0,0,0,42.61,36v4.9h3.15V22a8.18,8.18,0,0,0-1.21-4.53A7.79,7.79,0,0,0,41.1,14.61Zm1.51,15.14a9.52,9.52,0,0,1-1.21,5,8,8,0,0,1-3.17,3.08,9.58,9.58,0,0,1-7.86.37,5.38,5.38,0,0,1-3.47-5.3,5.37,5.37,0,0,1,1-3.31,5.9,5.9,0,0,1,2.69-1.91A11.65,11.65,0,0,1,34.63,27a17.73,17.73,0,0,1,4.87.67A14.8,14.8,0,0,1,42.61,29Z"/><path d="M92.51,15.31a13.88,13.88,0,0,0-6.8-1.68,10.7,10.7,0,0,0-6.17,1.82,12.25,12.25,0,0,0-4.14,5l0,.08V14.21H72.23V53.64h3.14V34.57l0,.08a12.18,12.18,0,0,0,4.14,5,10.63,10.63,0,0,0,6.17,1.83,13.88,13.88,0,0,0,6.8-1.68A12.43,12.43,0,0,0,97.35,35a14.86,14.86,0,0,0,1.78-7.43,14.8,14.8,0,0,0-1.78-7.45A12.42,12.42,0,0,0,92.51,15.31Zm2,18.21a9.7,9.7,0,0,1-3.86,3.79,11.18,11.18,0,0,1-5.38,1.31,8.88,8.88,0,0,1-4.84-1.45,10.85,10.85,0,0,1-3.69-3.94,11.58,11.58,0,0,1-1.39-5.69,11.54,11.54,0,0,1,1.39-5.68,10.77,10.77,0,0,1,3.69-3.94,8.88,8.88,0,0,1,4.84-1.45,11.18,11.18,0,0,1,5.38,1.3,9.79,9.79,0,0,1,3.86,3.8,11.63,11.63,0,0,1,1.46,6A11.7,11.7,0,0,1,94.53,33.52Z"/><polygon points="116.11 3.48 123.79 9.92 125.78 8.35 116.11 0.23 106.44 8.35 108.44 9.92 116.11 3.48"/><rect x="148.33" y="14.21" width="3.14" height="26.67"/><path d="M149.9,0a2.23,2.23,0,0,0-1.57.61,2,2,0,0,0-.66,1.54,2,2,0,0,0,.66,1.5,2.18,2.18,0,0,0,1.57.64,2.13,2.13,0,0,0,1.6-.64,2,2,0,0,0,.64-1.5A2,2,0,0,0,151.5.61,2.19,2.19,0,0,0,149.9,0Z"/><path d="M174.23,27.49a34.36,34.36,0,0,0-4.14-1.8c-1.13-.39-2.2-.79-3.2-1.22a6.6,6.6,0,0,1-2.42-1.65,3.72,3.72,0,0,1-.91-2.58,3.32,3.32,0,0,1,1.42-2.9,6,6,0,0,1,3.48-1A7.52,7.52,0,0,1,173,17.63a9.24,9.24,0,0,1,2.72,3l2.6-1.5a8.91,8.91,0,0,0-2.05-2.73,10.53,10.53,0,0,0-3.21-2,11.31,11.31,0,0,0-4.23-.75,11.44,11.44,0,0,0-4.08.72,6.93,6.93,0,0,0-3.08,2.23,5.92,5.92,0,0,0-1.18,3.77,6,6,0,0,0,1.18,3.86,8.42,8.42,0,0,0,3,2.35,38.88,38.88,0,0,0,3.75,1.56,29,29,0,0,1,3.38,1.31,7.65,7.65,0,0,1,2.54,1.79,3.87,3.87,0,0,1,1,2.7,4.21,4.21,0,0,1-1.54,3.45,6.31,6.31,0,0,1-4.08,1.25,8.7,8.7,0,0,1-3.78-.76,7.55,7.55,0,0,1-2.63-2,9.92,9.92,0,0,1-1.63-2.67l-2.54,1.4a10.82,10.82,0,0,0,1.9,3.24,9.48,9.48,0,0,0,3.45,2.55,11.94,11.94,0,0,0,5.05,1A9.53,9.53,0,0,0,176,39.29a7.12,7.12,0,0,0,2.51-5.66,5.67,5.67,0,0,0-1.18-3.71A9.47,9.47,0,0,0,174.23,27.49Z"/><path d="M198.59,27.49a34.36,34.36,0,0,0-4.14-1.8c-1.13-.39-2.2-.79-3.2-1.22a6.6,6.6,0,0,1-2.42-1.65,3.72,3.72,0,0,1-.91-2.58,3.3,3.3,0,0,1,1.42-2.9,6,6,0,0,1,3.48-1,7.52,7.52,0,0,1,4.53,1.28,9.24,9.24,0,0,1,2.72,3l2.6-1.5a8.91,8.91,0,0,0-2-2.73,10.53,10.53,0,0,0-3.21-2,11.31,11.31,0,0,0-4.23-.75,11.44,11.44,0,0,0-4.08.72A6.93,6.93,0,0,0,186,16.64a5.92,5.92,0,0,0-1.18,3.77A6,6,0,0,0,186,24.27a8.42,8.42,0,0,0,3,2.35,38.88,38.88,0,0,0,3.75,1.56,29,29,0,0,1,3.38,1.31,7.65,7.65,0,0,1,2.54,1.79,3.87,3.87,0,0,1,1,2.7,4.21,4.21,0,0,1-1.54,3.45A6.31,6.31,0,0,1,194,38.68a8.7,8.7,0,0,1-3.78-.76,7.55,7.55,0,0,1-2.63-2A9.92,9.92,0,0,1,186,33.28l-2.54,1.4a10.82,10.82,0,0,0,1.9,3.24,9.48,9.48,0,0,0,3.45,2.55,11.93,11.93,0,0,0,5,1,9.56,9.56,0,0,0,6.5-2.17,7.15,7.15,0,0,0,2.51-5.66,5.67,5.67,0,0,0-1.18-3.71A9.47,9.47,0,0,0,198.59,27.49Z"/><path d="M228,15.31a13,13,0,0,0-6.68-1.68,13.48,13.48,0,0,0-6.95,1.77,12.37,12.37,0,0,0-4.72,4.9A14.83,14.83,0,0,0,208,27.49a15.28,15.28,0,0,0,1.66,7.22,12.61,12.61,0,0,0,4.56,4.95,12.39,12.39,0,0,0,6.65,1.8,14.27,14.27,0,0,0,12.76-6.78l-2.54-1.57a12.61,12.61,0,0,1-4.26,4.18,11.27,11.27,0,0,1-5.59,1.33,9.87,9.87,0,0,1-5.29-1.39,9.26,9.26,0,0,1-3.51-3.95,12.89,12.89,0,0,1-1.19-5H234a5.75,5.75,0,0,0,.09-.7q0-.41,0-.75A14.28,14.28,0,0,0,232.5,20,11.75,11.75,0,0,0,228,15.31ZM211.27,25.69a11.86,11.86,0,0,1,1.19-4.21A9.41,9.41,0,0,1,216,17.66a10.16,10.16,0,0,1,5.35-1.37,9.41,9.41,0,0,1,4.77,1.22,9.06,9.06,0,0,1,3.36,3.37,9.61,9.61,0,0,1,1.23,4.81Z"/><path d="M250.72,13.63a6.11,6.11,0,0,0-4,1.45,9.3,9.3,0,0,0-2.38,3v-3.9h-3.15V40.88h3.15V24.64a14.71,14.71,0,0,1,.54-4.11,6.21,6.21,0,0,1,1.78-3,4.82,4.82,0,0,1,3.3-1.1,5.25,5.25,0,0,1,1.9.32,8.37,8.37,0,0,1,1.73.95l1.75-2.49A6,6,0,0,0,253.23,14,8.19,8.19,0,0,0,250.72,13.63Z"/><path d="M262.93,0a2.23,2.23,0,0,0-1.57.61,2,2,0,0,0-.66,1.54,2,2,0,0,0,.66,1.5,2.29,2.29,0,0,0,3.18,0,2,2,0,0,0,.63-1.5,2.06,2.06,0,0,0-.63-1.54A2.23,2.23,0,0,0,262.93,0Z"/><rect x="261.36" y="14.21" width="3.14" height="26.67"/><path d="M296.81,20a11.69,11.69,0,0,0-4.47-4.67,13,13,0,0,0-6.68-1.68,13.48,13.48,0,0,0-7,1.77A12.27,12.27,0,0,0,274,20.3a14.83,14.83,0,0,0-1.7,7.19A15.4,15.4,0,0,0,274,34.71a12.56,12.56,0,0,0,4.57,4.95,12.34,12.34,0,0,0,6.65,1.8,14.27,14.27,0,0,0,12.75-6.78l-2.54-1.57a12.61,12.61,0,0,1-4.26,4.18,11.25,11.25,0,0,1-5.59,1.33,9.87,9.87,0,0,1-5.29-1.39,9.17,9.17,0,0,1-3.5-3.95,12.89,12.89,0,0,1-1.2-5h22.74a5.75,5.75,0,0,0,.09-.7c0-.27,0-.52,0-.75A14.28,14.28,0,0,0,296.81,20Zm-21.22,5.71a11.46,11.46,0,0,1,1.19-4.21,9.32,9.32,0,0,1,3.53-3.82,10.19,10.19,0,0,1,5.35-1.37,9.44,9.44,0,0,1,4.78,1.22,9,9,0,0,1,3.35,3.37A9.51,9.51,0,0,1,295,25.69Z"/><path d="M137.81,14.21V4.93h-3.14v9.28h-4.53v2.84h4.53V33.26a4.48,4.48,0,0,1-8.95,0V22a8.39,8.39,0,0,0-1.14-4.47,7.67,7.67,0,0,0-3.3-2.87,12.1,12.1,0,0,0-5.17-1A14.29,14.29,0,0,0,110,14.79,21.37,21.37,0,0,0,106,17.16l1.57,2.32A19,19,0,0,1,109.62,18a12.57,12.57,0,0,1,6.49-1.74,7.14,7.14,0,0,1,4.69,1.48A5.16,5.16,0,0,1,122.58,22v4.58l-.33-.23a11.57,11.57,0,0,0-2.9-1.34,14.29,14.29,0,0,0-4.32-.58,15.71,15.71,0,0,0-5.72,1,9.7,9.7,0,0,0-4.2,3,7.76,7.76,0,0,0-1.57,5,7.67,7.67,0,0,0,1.24,4.47,7.55,7.55,0,0,0,3.42,2.69,12.36,12.36,0,0,0,4.77.9,12,12,0,0,0,5.29-1.13A9.27,9.27,0,0,0,122,37.2a7.9,7.9,0,0,0,.59-1.06l0-.13a10.65,10.65,0,0,0,3.16,3.46v0a7.59,7.59,0,0,0,2.08,1.07h0a6.87,6.87,0,0,0,1,.25l.21,0a7.08,7.08,0,0,0,1.13.09,7.35,7.35,0,0,0,.82-.07,8.52,8.52,0,0,0,2.29-.62l.1,0,.4-.2a7.15,7.15,0,0,0,.88-.54v0A7.79,7.79,0,0,0,137.8,35h0V17.05h4.54V14.21Zm-15.23,16.7a7.47,7.47,0,0,1-1.15,4.23,7.37,7.37,0,0,1-3.17,2.67,10.8,10.8,0,0,1-4.56.93,10,10,0,0,1-3.57-.61,5.45,5.45,0,0,1-2.48-1.86,5.36,5.36,0,0,1-.91-3.22,5.42,5.42,0,0,1,1.09-3.42,6.85,6.85,0,0,1,3-2.12,12.17,12.17,0,0,1,4.33-.72,15.1,15.1,0,0,1,4.92.72,15.52,15.52,0,0,1,2.51,1.15Z"/><circle cx="314.66" cy="38.58" r="2.88"/></g></g></svg>