<?xml version="1.0" encoding="utf-8"?>
<!-- Generator: Adobe Illustrator 26.0.2, SVG Export Plug-In . SVG Version: 6.00 Build 0)  -->
<svg version="1.1" id="Layer_1" xmlns="http://www.w3.org/2000/svg" xmlns:xlink="http://www.w3.org/1999/xlink" x="0px" y="0px"
	 viewBox="0 0 135.1 19.6" style="enable-background:new 0 0 135.1 19.6;" xml:space="preserve">
<style type="text/css">
	.st0{fill:#2747C5;}
</style>
<g>
	<path class="st0" d="M16.1,2.5l-6,16.6H6L0,2.5h3.6l4.5,13.2l4.5-13.2C12.6,2.5,16.1,2.5,16.1,2.5z"/>
	<path class="st0" d="M17.1,8.9c0.5-1.1,1.3-1.8,2.1-2.4C20,6,21.1,5.7,22.3,5.7c0.9,0,1.9,0.2,2.6,0.6c0.7,0.4,1.3,0.9,1.8,1.5V6
		H30v13.2h-3.3v-1.9c-0.5,0.6-1.1,1.2-1.8,1.5c-0.8,0.4-1.7,0.6-2.6,0.6c-1.1,0-2.1-0.2-3.1-0.8c-0.9-0.6-1.7-1.4-2.1-2.4
		c-0.5-1.1-0.8-2.3-0.8-3.6C16.2,11.2,16.6,10,17.1,8.9z M26.2,10.5c-0.4-0.6-0.7-1.1-1.3-1.3c-0.6-0.4-1.1-0.5-1.8-0.5
		s-1.2,0.1-1.7,0.5c-0.5,0.4-0.9,0.7-1.3,1.3c-0.4,0.6-0.5,1.3-0.5,2c0,0.7,0.1,1.4,0.5,2.1c0.4,0.6,0.7,1.1,1.3,1.4
		c0.5,0.4,1.1,0.5,1.7,0.5c0.6,0,1.2-0.1,1.8-0.5c0.6-0.4,0.9-0.7,1.3-1.3c0.4-0.6,0.5-1.3,0.5-2.1C26.7,11.8,26.4,11.1,26.2,10.5z"
		/>
	<path class="st0" d="M32.3,8.9c0.6-1.1,1.3-1.8,2.3-2.4c0.9-0.6,2.1-0.8,3.3-0.8c1.7,0,3,0.4,4,1.2s1.8,2,2.1,3.4h-3.6
		C40.2,9.8,40,9.3,39.5,9c-0.5-0.4-1.1-0.5-1.7-0.5c-0.9,0-1.7,0.4-2.3,1.1c-0.6,0.7-0.8,1.7-0.8,3s0.2,2.3,0.8,3
		c0.6,0.7,1.3,1.1,2.3,1.1c1.3,0,2.3-0.6,2.6-1.8H44c-0.4,1.4-1.1,2.6-2.1,3.4c-1.1,0.8-2.4,1.3-4,1.3c-1.3,0-2.4-0.2-3.3-0.8
		c-0.9-0.6-1.8-1.3-2.3-2.4c-0.6-1.1-0.8-2.3-0.8-3.6C31.4,11.2,31.7,10,32.3,8.9z"/>
	<path class="st0" d="M45.5,8.9c0.6-1.1,1.3-1.8,2.3-2.4s2.1-0.8,3.3-0.8c1.7,0,3,0.4,4,1.2c1.1,0.8,1.8,2,2.1,3.4h-3.6
		c-0.2-0.6-0.5-1.1-0.9-1.3c-0.5-0.4-1.1-0.5-1.7-0.5c-0.9,0-1.7,0.4-2.3,1.1c-0.6,0.7-0.8,1.7-0.8,3s0.2,2.3,0.8,3
		c0.6,0.7,1.3,1.1,2.3,1.1c1.3,0,2.3-0.6,2.6-1.8h3.6c-0.4,1.4-1.1,2.6-2.1,3.4c-1.1,0.8-2.4,1.3-4,1.3c-1.3,0-2.4-0.2-3.3-0.8
		c-0.9-0.6-1.8-1.3-2.3-2.4c-0.6-1.1-0.8-2.3-0.8-3.6C44.7,11.2,45.1,10,45.5,8.9z"/>
	<path class="st0" d="M59.2,3.8c-0.4-0.4-0.6-0.8-0.6-1.4s0.2-1.1,0.6-1.4s0.8-0.6,1.4-0.6c0.6,0,1.1,0.2,1.4,0.6s0.6,0.8,0.6,1.4
		S62.4,3.5,62,3.8s-0.8,0.6-1.4,0.6C60,4.4,59.5,4.2,59.2,3.8z M62.3,6v13.2h-3.3V6H62.3z"/>
	<path class="st0" d="M75.7,7.3c0.9,0.9,1.4,2.4,1.4,4.2v7.7h-3.3v-7.2c0-1.1-0.2-1.9-0.8-2.4c-0.5-0.6-1.2-0.8-2.1-0.8
		c-0.9,0-1.7,0.2-2.1,0.8c-0.5,0.6-0.8,1.4-0.8,2.4v7.2h-3.3V6H68v1.7C68.4,7,69,6.6,69.6,6.3C70.3,6,71,5.8,71.9,5.8
		C73.4,5.7,74.7,6.3,75.7,7.3z"/>
	<path class="st0" d="M79.2,8.9c0.5-1.1,1.3-1.8,2.1-2.4c0.9-0.6,1.9-0.8,3.1-0.8c0.9,0,1.9,0.2,2.6,0.6c0.7,0.4,1.3,0.9,1.8,1.5V6
		h3.3v13.2h-3.3v-1.9c-0.5,0.6-1.1,1.2-1.8,1.5s-1.7,0.6-2.6,0.6c-1.1,0-2.1-0.2-3.1-0.8c-0.9-0.6-1.7-1.4-2.1-2.4
		c-0.5-1.1-0.8-2.3-0.8-3.6C78.5,11.2,78.8,10,79.2,8.9z M88.4,10.5c-0.4-0.6-0.7-1.1-1.3-1.3c-0.6-0.4-1.1-0.5-1.8-0.5
		c-0.6,0-1.2,0.1-1.7,0.5c-0.5,0.4-0.9,0.7-1.3,1.3c-0.4,0.6-0.5,1.3-0.5,2c0,0.7,0.1,1.4,0.5,2.1c0.4,0.6,0.7,1.1,1.3,1.4
		c0.5,0.4,1.1,0.5,1.7,0.5c0.6,0,1.2-0.1,1.8-0.5s0.9-0.7,1.3-1.3c0.4-0.6,0.5-1.3,0.5-2.1C88.8,11.8,88.7,11.1,88.4,10.5z"/>
	<path class="st0" d="M98.3,8.7v6.4c0,0.5,0.1,0.7,0.4,0.9c0.2,0.2,0.6,0.2,1.1,0.2h1.5v2.8h-2.1c-2.8,0-4.2-1.3-4.2-4V8.7h-1.5V6
		H95V2.8h3.3V6h3v2.7H98.3z"/>
	<path class="st0" d="M103,3.8c-0.4-0.4-0.6-0.8-0.6-1.4s0.2-1.1,0.6-1.4c0.4-0.4,0.8-0.6,1.4-0.6c0.6,0,1.1,0.2,1.4,0.6
		c0.4,0.4,0.6,0.8,0.6,1.4s-0.2,1.1-0.6,1.4c-0.4,0.4-0.8,0.6-1.4,0.6C103.9,4.4,103.3,4.2,103,3.8z M106,6v13.2h-3.3V6H106z"/>
	<path class="st0" d="M110.8,18.5c-1.1-0.6-1.8-1.3-2.4-2.4s-0.8-2.3-0.8-3.6s0.2-2.5,0.9-3.6c0.6-1.1,1.4-1.8,2.5-2.4
		c1.1-0.6,2.1-0.8,3.4-0.8c1.3,0,2.4,0.2,3.4,0.8c1.1,0.6,1.9,1.3,2.5,2.4c0.6,1.1,0.9,2.3,0.9,3.6s-0.4,2.5-0.9,3.6
		c-0.6,1.1-1.4,1.8-2.5,2.4c-1.1,0.6-2.3,0.8-3.4,0.8C112.9,19.4,111.8,19,110.8,18.5z M115.9,16c0.5-0.2,0.9-0.7,1.3-1.3
		c0.4-0.6,0.5-1.3,0.5-2.1c0-1.3-0.4-2.3-0.9-2.8c-0.7-0.7-1.4-1.1-2.4-1.1S112.6,9,112,9.8s-0.9,1.7-0.9,2.8s0.4,2.3,0.9,2.8
		c0.6,0.7,1.4,1.1,2.4,1.1C114.8,16.4,115.4,16.3,115.9,16z"/>
	<path class="st0" d="M133.7,7.3c0.9,0.9,1.4,2.4,1.4,4.2v7.7h-3.3v-7.2c0-1.1-0.2-1.9-0.8-2.4c-0.5-0.6-1.2-0.8-2.1-0.8
		s-1.7,0.2-2.1,0.8c-0.5,0.6-0.8,1.4-0.8,2.4v7.2h-3.3V6h3.3v1.7c0.5-0.6,1.1-1.1,1.7-1.3c0.7-0.4,1.4-0.5,2.3-0.5
		C131.4,5.7,132.7,6.3,133.7,7.3z"/>
</g>
</svg>
